<svg width="600" height="644" viewBox="0 0 600 644" fill="none" xmlns="http://www.w3.org/2000/svg">
<path d="M600 492.531H0V492.852H600V492.531Z" fill="#EBEBEB"/>
<path d="M207.864 500.749H180.048V501.07H207.864V500.749Z" fill="#EBEBEB"/>
<path d="M550.524 507.652H482.52V507.973H550.524V507.652Z" fill="#EBEBEB"/>
<path d="M119.268 507.652H51.2637V507.973H119.268V507.652Z" fill="#EBEBEB"/>
<path d="M284.4 435.087H52.6916C50.8764 435.083 49.1366 434.307 47.8542 432.928C46.5718 431.549 45.8516 429.68 45.8516 427.732V78.1302C45.8674 76.193 46.5946 74.3408 47.8753 72.9759C49.156 71.6109 50.8867 70.8434 52.6916 70.8401H284.4C286.217 70.8401 287.96 71.6149 289.245 72.9942C290.53 74.3734 291.252 76.244 291.252 78.1946V427.732C291.252 429.683 290.53 431.553 289.245 432.932C287.96 434.312 286.217 435.087 284.4 435.087ZM52.6916 71.0977C50.9559 71.1011 49.2925 71.8435 48.0664 73.162C46.8402 74.4805 46.1516 76.2673 46.1516 78.1302V427.732C46.1516 429.595 46.8402 431.382 48.0664 432.7C49.2925 434.019 50.9559 434.761 52.6916 434.764H284.4C286.135 434.758 287.798 434.015 289.026 432.697C290.253 431.38 290.945 429.595 290.952 427.732V78.1302C290.945 76.2671 290.253 74.4823 289.026 73.165C287.798 71.8476 286.135 71.1045 284.4 71.0977H52.6916Z" fill="#EBEBEB"/>
<path d="M543.972 435.087H312.252C310.437 435.08 308.698 434.303 307.414 432.925C306.131 431.547 305.407 429.68 305.4 427.732V78.1302C305.419 76.1919 306.149 74.3397 307.432 72.9751C308.714 71.6105 310.446 70.8434 312.252 70.8401H543.972C545.775 70.8468 547.503 71.6158 548.781 72.9804C550.059 74.345 550.785 76.1953 550.8 78.1302V427.732C550.802 428.696 550.627 429.651 550.284 430.543C549.942 431.434 549.44 432.244 548.805 432.927C548.171 433.61 547.418 434.152 546.589 434.523C545.76 434.893 544.871 435.085 543.972 435.087ZM312.252 71.0977C310.517 71.1045 308.854 71.8476 307.626 73.165C306.399 74.4823 305.707 76.2671 305.7 78.1302V427.732C305.707 429.595 306.399 431.38 307.626 432.697C308.854 434.015 310.517 434.758 312.252 434.764H543.972C545.708 434.758 547.371 434.015 548.598 432.697C549.826 431.38 550.518 429.595 550.524 427.732V78.1302C550.518 76.2671 549.826 74.4823 548.598 73.165C547.371 71.8476 545.708 71.1045 543.972 71.0977H312.252Z" fill="#EBEBEB"/>
<path d="M118.44 167.968H218.4C219.406 167.967 220.403 168.178 221.332 168.59C222.262 169.003 223.106 169.608 223.818 170.371C224.529 171.135 225.093 172.041 225.477 173.039C225.861 174.037 226.058 175.106 226.056 176.186V492.235H110.856V176.173C110.86 174.009 111.658 171.934 113.078 170.398C114.497 168.862 116.425 167.989 118.44 167.968Z" fill="#F5F5F5"/>
<path d="M135.216 187.121H120.36V222.618H135.216V187.121Z" fill="#EBEBEB"/>
<path d="M216.456 187.121H201.6V222.618H216.456V187.121Z" fill="#EBEBEB"/>
<path d="M162.288 187.121H147.432V222.618H162.288V187.121Z" fill="#EBEBEB"/>
<path d="M189.372 187.121H174.516V222.618H189.372V187.121Z" fill="#EBEBEB"/>
<path d="M135.216 243.162H120.36V278.659H135.216V243.162Z" fill="#EBEBEB"/>
<path d="M216.456 243.162H201.6V278.659H216.456V243.162Z" fill="#EBEBEB"/>
<path d="M162.288 243.162H147.432V278.659H162.288V243.162Z" fill="#EBEBEB"/>
<path d="M189.372 243.162H174.516V278.659H189.372V243.162Z" fill="#EBEBEB"/>
<path d="M135.216 299.19H120.36V334.687H135.216V299.19Z" fill="#EBEBEB"/>
<path d="M216.456 299.19H201.6V334.687H216.456V299.19Z" fill="#EBEBEB"/>
<path d="M162.288 299.19H147.432V334.687H162.288V299.19Z" fill="#EBEBEB"/>
<path d="M189.372 299.19H174.516V334.687H189.372V299.19Z" fill="#EBEBEB"/>
<path d="M135.216 355.23H120.36V390.728H135.216V355.23Z" fill="#EBEBEB"/>
<path d="M216.456 355.23H201.6V390.728H216.456V355.23Z" fill="#EBEBEB"/>
<path d="M162.288 355.23H147.432V390.728H162.288V355.23Z" fill="#EBEBEB"/>
<path d="M189.372 355.23H174.516V390.728H189.372V355.23Z" fill="#EBEBEB"/>
<path d="M135.216 411.259H120.36V446.756H135.216V411.259Z" fill="#EBEBEB"/>
<path d="M216.456 411.259H201.6V446.756H216.456V411.259Z" fill="#EBEBEB"/>
<path d="M162.288 411.259H147.432V446.756H162.288V411.259Z" fill="#EBEBEB"/>
<path d="M189.372 411.259H174.516V446.756H189.372V411.259Z" fill="#EBEBEB"/>
<path d="M472.728 197.425H544.296C545.947 197.428 547.53 198.134 548.697 199.386C549.864 200.639 550.521 202.338 550.524 204.11V492.235H466.524V204.122C466.524 202.353 467.177 200.655 468.339 199.4C469.502 198.145 471.08 197.435 472.728 197.425Z" fill="#F5F5F5"/>
<path d="M490.704 214.851H477.204V247.116H490.704V214.851Z" fill="#EBEBEB"/>
<path d="M515.328 214.851H501.828V247.116H515.328V214.851Z" fill="#EBEBEB"/>
<path d="M539.94 214.851H526.44V247.116H539.94V214.851Z" fill="#EBEBEB"/>
<path d="M490.704 265.792H477.204V298.056H490.704V265.792Z" fill="#EBEBEB"/>
<path d="M515.328 265.792H501.828V298.056H515.328V265.792Z" fill="#EBEBEB"/>
<path d="M539.94 265.792H526.44V298.056H539.94V265.792Z" fill="#EBEBEB"/>
<path d="M490.704 316.745H477.204V349.01H490.704V316.745Z" fill="#EBEBEB"/>
<path d="M515.328 316.745H501.828V349.01H515.328V316.745Z" fill="#EBEBEB"/>
<path d="M539.94 316.745H526.44V349.01H539.94V316.745Z" fill="#EBEBEB"/>
<path d="M490.704 367.673H477.204V399.937H490.704V367.673Z" fill="#EBEBEB"/>
<path d="M515.328 367.673H501.828V399.937H515.328V367.673Z" fill="#EBEBEB"/>
<path d="M539.94 367.673H526.44V399.937H539.94V367.673Z" fill="#EBEBEB"/>
<path d="M490.704 418.626H477.204V450.89H490.704V418.626Z" fill="#EBEBEB"/>
<path d="M515.328 418.626H501.828V450.89H515.328V418.626Z" fill="#EBEBEB"/>
<path d="M539.94 418.626H526.44V450.89H539.94V418.626Z" fill="#EBEBEB"/>
<path d="M308.772 114.967H425.028C427.389 114.967 429.654 115.974 431.324 117.766C432.994 119.558 433.932 121.989 433.932 124.524V492.235H299.88V124.524C299.88 121.992 300.816 119.563 302.484 117.771C304.151 115.979 306.412 114.97 308.772 114.967Z" fill="#F5F5F5"/>
<path d="M328.284 137.262H311.004V178.555H328.284V137.262Z" fill="#EBEBEB"/>
<path d="M422.796 137.262H405.516V178.555H422.796V137.262Z" fill="#EBEBEB"/>
<path d="M359.784 137.262H342.504V178.555H359.784V137.262Z" fill="#EBEBEB"/>
<path d="M391.296 137.262H374.016V178.555H391.296V137.262Z" fill="#EBEBEB"/>
<path d="M328.284 202.461H311.004V243.754H328.284V202.461Z" fill="#EBEBEB"/>
<path d="M422.796 202.461H405.516V243.754H422.796V202.461Z" fill="#EBEBEB"/>
<path d="M359.784 202.461H342.504V243.754H359.784V202.461Z" fill="#EBEBEB"/>
<path d="M391.296 202.461H374.016V243.754H391.296V202.461Z" fill="#EBEBEB"/>
<path d="M328.284 267.659H311.004V308.953H328.284V267.659Z" fill="#EBEBEB"/>
<path d="M422.796 267.659H405.516V308.953H422.796V267.659Z" fill="#EBEBEB"/>
<path d="M359.784 267.659H342.504V308.953H359.784V267.659Z" fill="#EBEBEB"/>
<path d="M391.296 267.659H374.016V308.953H391.296V267.659Z" fill="#EBEBEB"/>
<path d="M328.284 332.845H311.004V374.138H328.284V332.845Z" fill="#EBEBEB"/>
<path d="M422.796 332.845H405.516V374.138H422.796V332.845Z" fill="#EBEBEB"/>
<path d="M359.784 332.845H342.504V374.138H359.784V332.845Z" fill="#EBEBEB"/>
<path d="M391.296 332.845H374.016V374.138H391.296V332.845Z" fill="#EBEBEB"/>
<path d="M328.284 398.031H311.004V439.324H328.284V398.031Z" fill="#EBEBEB"/>
<path d="M422.796 398.031H405.516V439.324H422.796V398.031Z" fill="#EBEBEB"/>
<path d="M359.784 398.031H342.504V439.324H359.784V398.031Z" fill="#EBEBEB"/>
<path d="M391.296 398.031H374.016V439.324H391.296V398.031Z" fill="#EBEBEB"/>
<path d="M299.868 250.091H226.02V492.248H299.868V250.091Z" fill="#E6E6E6"/>
<path d="M466.572 276.019H433.944V492.235H466.572V276.019Z" fill="#E6E6E6"/>
<path d="M110.784 492.235H46.1523V391.14L110.784 367.673V492.235Z" fill="#E6E6E6"/>
<path d="M300 550.697C428.499 550.697 532.668 541.534 532.668 530.231C532.668 518.928 428.499 509.765 300 509.765C171.501 509.765 67.332 518.928 67.332 530.231C67.332 541.534 171.501 550.697 300 550.697Z" fill="#F5F5F5"/>
<path d="M357.216 449.409H336.816C326.196 449.409 317.616 465.934 317.616 486.323C317.616 506.712 326.22 523.224 336.816 523.224H357.216C367.836 523.224 376.416 506.699 376.416 486.323C376.416 465.947 367.836 449.409 357.216 449.409Z" fill="#263238"/>
<mask id="mask0_264_795" style="mask-type:luminance" maskUnits="userSpaceOnUse" x="317" y="449" width="60" height="75">
<path d="M357.216 449.409H336.816C326.196 449.409 317.616 465.934 317.616 486.323C317.616 506.712 326.22 523.224 336.816 523.224H357.216C367.836 523.224 376.416 506.699 376.416 486.323C376.416 465.947 367.836 449.409 357.216 449.409Z" fill="white"/>
</mask>
<g mask="url(#mask0_264_795)">
<path opacity="0.05" d="M381.216 449.409H360.816C350.196 449.409 341.616 465.934 341.616 486.323C341.616 506.712 350.22 523.224 360.816 523.224H381.216C391.836 523.224 400.416 506.699 400.416 486.323C400.416 465.947 391.836 449.409 381.216 449.409Z" fill="white"/>
</g>
<path d="M522.468 457.317L165.24 457.047V212.134H522.468V457.317Z" fill="#6E69D1"/>
<path opacity="0.3" d="M522.468 212.134H280.356V457.304H522.468V212.134Z" fill="#263238"/>
<path opacity="0.2" d="M280.356 212.134H165.24V462.147H280.356V212.134Z" fill="white"/>
<path opacity="0.1" d="M166.104 223.52H522.469" stroke="white" stroke-width="2" stroke-linecap="round" stroke-linejoin="round"/>
<path opacity="0.1" d="M166.104 234.12H522.469" stroke="white" stroke-width="2" stroke-linecap="round" stroke-linejoin="round"/>
<path opacity="0.1" d="M166.104 244.707H522.469" stroke="white" stroke-width="2" stroke-linecap="round" stroke-linejoin="round"/>
<path opacity="0.1" d="M166.104 255.294H522.469" stroke="white" stroke-width="2" stroke-linecap="round" stroke-linejoin="round"/>
<path opacity="0.1" d="M166.104 265.895H522.469" stroke="white" stroke-width="2" stroke-linecap="round" stroke-linejoin="round"/>
<path opacity="0.1" d="M166.104 276.482H522.469" stroke="white" stroke-width="2" stroke-linecap="round" stroke-linejoin="round"/>
<path opacity="0.1" d="M166.104 287.069H522.469" stroke="white" stroke-width="2" stroke-linecap="round" stroke-linejoin="round"/>
<path opacity="0.1" d="M166.104 297.657H522.469" stroke="white" stroke-width="2" stroke-linecap="round" stroke-linejoin="round"/>
<path opacity="0.1" d="M166.104 308.257H522.469" stroke="white" stroke-width="2" stroke-linecap="round" stroke-linejoin="round"/>
<path opacity="0.1" d="M166.104 318.844H522.469" stroke="white" stroke-width="2" stroke-linecap="round" stroke-linejoin="round"/>
<path opacity="0.1" d="M166.104 329.432H522.469" stroke="white" stroke-width="2" stroke-linecap="round" stroke-linejoin="round"/>
<path opacity="0.1" d="M166.104 340.032H522.469" stroke="white" stroke-width="2" stroke-linecap="round" stroke-linejoin="round"/>
<path opacity="0.1" d="M166.104 350.619H522.469" stroke="white" stroke-width="2" stroke-linecap="round" stroke-linejoin="round"/>
<path opacity="0.1" d="M166.104 361.207H522.469" stroke="white" stroke-width="2" stroke-linecap="round" stroke-linejoin="round"/>
<path opacity="0.1" d="M166.104 371.794H522.469" stroke="white" stroke-width="2" stroke-linecap="round" stroke-linejoin="round"/>
<path opacity="0.1" d="M166.104 382.394H522.469" stroke="white" stroke-width="2" stroke-linecap="round" stroke-linejoin="round"/>
<path opacity="0.1" d="M166.104 392.982H522.469" stroke="white" stroke-width="2" stroke-linecap="round" stroke-linejoin="round"/>
<path opacity="0.1" d="M166.104 403.569H522.469" stroke="white" stroke-width="2" stroke-linecap="round" stroke-linejoin="round"/>
<path opacity="0.1" d="M166.104 414.169H522.469" stroke="white" stroke-width="2" stroke-linecap="round" stroke-linejoin="round"/>
<path opacity="0.1" d="M166.104 424.757H522.469" stroke="white" stroke-width="2" stroke-linecap="round" stroke-linejoin="round"/>
<path opacity="0.1" d="M166.104 435.344H522.469" stroke="white" stroke-width="2" stroke-linecap="round" stroke-linejoin="round"/>
<path opacity="0.1" d="M166.104 445.944H522.469" stroke="white" stroke-width="2" stroke-linecap="round" stroke-linejoin="round"/>
<path d="M99.684 454.226H80.808C70.968 454.226 63 469.528 63 488.41C63 507.292 70.968 522.58 80.808 522.58H99.684C109.524 522.58 117.492 507.279 117.492 488.41C117.492 469.54 109.524 454.226 99.684 454.226Z" fill="#263238"/>
<path opacity="0.05" d="M123.696 454.226H104.808C94.968 454.226 87 469.528 87 488.41C87 507.292 94.968 522.58 104.808 522.58H123.696C133.524 522.58 141.504 507.279 141.504 488.41C141.504 469.54 133.524 454.226 123.696 454.226Z" fill="white"/>
<path d="M89.1847 387.469H80.2567C78.5047 387.533 77.0647 385.524 77.0287 382.974C77.0048 382.708 77.0048 382.441 77.0287 382.175L79.4287 353.234C79.7287 350.259 81.4447 348.082 83.5087 347.94H92.5207C94.2607 347.94 95.7007 349.911 95.7367 352.461C95.7367 352.719 95.7367 352.976 95.7367 353.234L93.3367 382.175C92.9767 385.112 91.2007 387.392 89.1847 387.469Z" fill="#263238"/>
<path d="M98.1126 291.874L80.8926 391.552L268.369 470.377L267.061 273.932L225.829 272.644H112.885C106.093 272.579 100.105 280.41 98.1126 291.874Z" fill="#6E69D1"/>
<path d="M237.601 307.909C230.605 307.574 224.329 313.731 222.277 322.914L208.093 386.696H180.793L179.305 470.841H269.101" fill="#6E69D1"/>
<path d="M100.8 381.338C98.052 381.338 95.832 377.551 95.832 372.889C95.8308 372.076 95.9031 371.265 96.048 370.467L106.356 311.941C107.22 307.085 109.86 303.762 112.848 303.775H211.464C212.532 303.775 213.408 305.243 213.408 307.072C213.41 307.396 213.382 307.72 213.324 308.038C211.164 320.094 204.144 360.035 201.456 375.31C200.832 378.891 198.888 381.338 196.656 381.338H100.8Z" fill="#263238"/>
<path d="M191.544 407.278C191.542 408.304 191.474 409.328 191.34 410.344L190.824 414.118L190.524 416.346L188.316 432.626L184.716 459.095L183.72 466.449H44.1719V459.095L44.2679 432.626L44.3999 416.797V410.357C43.1999 401.856 47.0279 393.613 52.8599 391.9C53.5441 391.699 54.2506 391.6 54.9599 391.604H180.792C186.732 391.552 191.544 398.61 191.544 407.278Z" fill="#6E69D1"/>
<path d="M262.477 311.696V374.435C262.477 378.234 260.665 381.325 258.421 381.338H224.317C222.073 381.338 220.261 378.247 220.261 374.435C220.26 373.813 220.308 373.193 220.405 372.58L230.917 308.437C231.421 305.359 233.101 303.285 234.973 303.401L258.565 304.792C260.749 304.934 262.477 307.987 262.477 311.696Z" fill="#263238"/>
<path opacity="0.1" d="M158.329 303.775H139.489L117.853 381.338H136.705L158.329 303.775Z" fill="white"/>
<path opacity="0.1" d="M172.992 303.775H163.992L142.368 381.338H151.356L172.992 303.775Z" fill="white"/>
<path d="M227.7 432.626V459.095H44.1963L44.2923 432.626H227.7Z" fill="black"/>
<path d="M202.14 432.626H185.172L154.656 451.869V459.095H227.7V432.626H202.14Z" fill="white"/>
<path d="M75.8283 451.869V459.095H44.1963L44.2923 432.626H45.3243L75.8283 451.869Z" fill="white"/>
<path opacity="0.3" d="M268.453 470.841L267.061 273.932L241.861 272.644C235.573 272.309 228.313 280.153 226.477 289.246L208.213 391.552H201.097C193.105 391.552 187.633 397.799 187.645 404.432L187.753 470.867H268.453" fill="#263238"/>
<path d="M191.076 415.045C191.074 415.289 191.023 415.53 190.928 415.752C190.833 415.974 190.696 416.172 190.524 416.333C190.231 416.625 189.845 416.787 189.444 416.784H44.4004V413.281H189.48C189.757 413.281 190.028 413.357 190.269 413.502C190.511 413.646 190.714 413.853 190.86 414.105C191.012 414.391 191.087 414.716 191.076 415.045Z" fill="white"/>
<path d="M69.9845 413.293V416.797H44.3525L44.3645 413.293H69.9845Z" fill="#263238"/>
<path d="M191.077 415.045C191.074 415.289 191.024 415.53 190.929 415.752C190.833 415.974 190.696 416.172 190.525 416.333C190.231 416.625 189.845 416.787 189.445 416.784H154.261V413.281H189.445C189.721 413.281 189.992 413.357 190.234 413.502C190.475 413.646 190.679 413.853 190.825 414.105C190.989 414.387 191.076 414.713 191.077 415.045Z" fill="#263238"/>
<path d="M528.876 463.68V464.376C528.876 466.084 528.244 467.722 527.119 468.929C525.994 470.137 524.468 470.816 522.876 470.816H46.2363C44.645 470.816 43.1189 470.137 41.9937 468.929C40.8685 467.722 40.2363 466.084 40.2363 464.376V463.68C40.2363 461.972 40.8685 460.334 41.9937 459.126C43.1189 457.919 44.645 457.24 46.2363 457.24H522.876C524.468 457.24 525.994 457.919 527.119 459.126C528.244 460.334 528.876 461.972 528.876 463.68Z" fill="#263238"/>
<path d="M151.933 462.534H80.8926V466.256H151.933V462.534Z" fill="black"/>
<path d="M61.9922 464.388C61.9922 464.808 61.8764 465.219 61.6594 465.568C61.4423 465.917 61.1338 466.189 60.7727 466.351C60.4116 466.512 60.0141 466.555 59.6303 466.474C59.2466 466.393 58.8938 466.192 58.6164 465.896C58.339 465.6 58.1495 465.222 58.0717 464.811C57.994 464.399 58.0315 463.973 58.1795 463.584C58.3275 463.195 58.5795 462.863 58.9035 462.628C59.2275 462.393 59.6091 462.266 60.0002 462.263C60.2613 462.262 60.52 462.315 60.7616 462.421C61.0032 462.527 61.2229 462.684 61.4081 462.881C61.5932 463.079 61.7401 463.313 61.8404 463.572C61.9406 463.831 61.9922 464.108 61.9922 464.388Z" fill="white"/>
<path d="M168.9 464.388C168.9 464.809 168.784 465.22 168.567 465.569C168.349 465.919 168.04 466.191 167.678 466.352C167.316 466.513 166.918 466.555 166.534 466.473C166.15 466.391 165.797 466.188 165.52 465.891C165.243 465.594 165.055 465.215 164.978 464.803C164.902 464.391 164.941 463.963 165.091 463.575C165.241 463.187 165.495 462.855 165.82 462.621C166.146 462.388 166.529 462.263 166.92 462.263C167.18 462.263 167.438 462.318 167.678 462.425C167.918 462.532 168.137 462.688 168.321 462.886C168.504 463.083 168.65 463.317 168.75 463.575C168.849 463.833 168.9 464.109 168.9 464.388Z" fill="white"/>
<path d="M226.309 485.486C226.309 464.994 234.961 448.378 245.641 448.378H225.133C214.465 448.378 205.812 464.994 205.812 485.486C205.812 505.978 214.465 522.58 225.133 522.58H245.641C234.961 522.619 226.309 506.016 226.309 485.486Z" fill="black"/>
<path opacity="0.7" d="M226.309 485.486C226.309 464.994 234.961 448.378 245.641 448.378H225.133C214.465 448.378 205.812 464.994 205.812 485.486C205.812 505.978 214.465 522.58 225.133 522.58H245.641C234.961 522.619 226.309 506.016 226.309 485.486Z" fill="#263238"/>
<path d="M245.641 522.632C256.317 522.632 264.973 506.018 264.973 485.525C264.973 465.031 256.317 448.417 245.641 448.417C234.964 448.417 226.309 465.031 226.309 485.525C226.309 506.018 234.964 522.632 245.641 522.632Z" fill="#263238"/>
<path d="M247.188 514.453C254.757 514.453 260.892 501.501 260.892 485.524C260.892 469.548 254.757 456.596 247.188 456.596C239.62 456.596 233.484 469.548 233.484 485.524C233.484 501.501 239.62 514.453 247.188 514.453Z" fill="white"/>
<path d="M245.94 510.563C253.184 510.563 259.056 499.353 259.056 485.524C259.056 471.696 253.184 460.486 245.94 460.486C238.696 460.486 232.824 471.696 232.824 485.524C232.824 499.353 238.696 510.563 245.94 510.563Z" fill="#263238"/>
<path d="M243.06 503.801C248.349 503.801 252.636 495.618 252.636 485.525C252.636 475.431 248.349 467.248 243.06 467.248C237.772 467.248 233.484 475.431 233.484 485.525C233.484 495.618 237.772 503.801 243.06 503.801Z" fill="black"/>
<path opacity="0.5" d="M528.876 463.68V464.376C528.876 466.084 528.244 467.722 527.119 468.929C525.994 470.137 524.468 470.816 522.876 470.816H280.356V457.24H522.876C524.468 457.24 525.994 457.919 527.119 459.126C528.244 460.334 528.876 461.972 528.876 463.68Z" fill="black"/>
<path d="M453.504 485.486C453.504 464.994 462.156 448.378 472.824 448.378H452.328C441.648 448.378 432.996 464.994 432.996 485.486C432.996 505.978 441.648 522.58 452.328 522.58H472.8C462.156 522.619 453.504 506.016 453.504 485.486Z" fill="black"/>
<path opacity="0.7" d="M453.504 485.486C453.504 464.994 462.156 448.378 472.824 448.378H452.328C441.648 448.378 432.996 464.994 432.996 485.486C432.996 505.978 441.648 522.58 452.328 522.58H472.8C462.156 522.619 453.504 506.016 453.504 485.486Z" fill="#263238"/>
<path d="M472.824 522.632C483.501 522.632 492.156 506.018 492.156 485.525C492.156 465.031 483.501 448.417 472.824 448.417C462.147 448.417 453.492 465.031 453.492 485.525C453.492 506.018 462.147 522.632 472.824 522.632Z" fill="#263238"/>
<path d="M474.385 514.453C481.953 514.453 488.089 501.501 488.089 485.524C488.089 469.548 481.953 456.596 474.385 456.596C466.816 456.596 460.681 469.548 460.681 485.524C460.681 501.501 466.816 514.453 474.385 514.453Z" fill="white"/>
<path d="M473.125 510.563C480.369 510.563 486.241 499.353 486.241 485.524C486.241 471.696 480.369 460.486 473.125 460.486C465.881 460.486 460.009 471.696 460.009 485.524C460.009 499.353 465.881 510.563 473.125 510.563Z" fill="#263238"/>
<path d="M470.244 503.801C475.533 503.801 479.82 495.618 479.82 485.525C479.82 475.431 475.533 467.248 470.244 467.248C464.955 467.248 460.668 475.431 460.668 485.525C460.668 495.618 464.955 503.801 470.244 503.801Z" fill="black"/>
<path d="M394.633 303.968C394.393 308.927 393.973 313.718 393.289 318.6C392.697 323.642 391.669 328.614 390.217 333.45C389.758 334.859 389.184 336.221 388.501 337.52C388.025 338.397 387.444 339.202 386.773 339.916L386.437 340.251L386.245 340.406L386.149 340.496L385.741 340.792L384.937 341.397C382.898 342.801 380.755 344.02 378.529 345.042C374.303 347.036 369.911 348.597 365.413 349.705L363.853 345.12C367.669 342.853 371.581 340.534 375.145 338.126C376.887 336.979 378.562 335.718 380.161 334.352L380.689 333.875L380.953 333.631C380.953 333.631 381.061 333.437 381.193 333.128C381.543 332.295 381.832 331.434 382.057 330.552C382.599 328.434 383.028 326.284 383.341 324.112C383.713 321.871 384.013 319.591 384.265 317.273C384.757 312.675 385.177 307.961 385.465 303.375L394.633 303.968Z" fill="#CE7A63"/>
<path d="M366.696 345.184L359.328 342.737L360.708 352.307C360.708 352.307 365.508 351.663 367.908 348.778L366.696 345.184Z" fill="#CE7A63"/>
<path d="M350.4 348.893L350.808 350.181C351.038 350.893 351.477 351.505 352.06 351.925C352.642 352.345 353.335 352.552 354.036 352.513L357.792 352.332L356.4 342.737L352.272 344.476C351.489 344.81 350.857 345.457 350.508 346.28C350.159 347.104 350.12 348.04 350.4 348.893Z" fill="#CE7A63"/>
<path d="M403.344 294.682C403.344 297.67 402 303.569 400.848 307.999C399.996 311.181 399.288 313.602 399.288 313.602L397.596 313.151L383.652 309.365C383.436 301.637 383.712 293.226 390.852 288.177C395.316 285.009 403.308 289.362 403.344 294.682Z" fill="#263238"/>
<path opacity="0.3" d="M403.332 295.197C402.42 294.166 400.356 293.986 395.856 295.519C389.412 297.708 387.612 305.282 387.528 310.421L397.596 313.151L398.46 313.396L399.288 313.602C399.288 313.602 399.636 312.391 400.14 310.55C400.344 309.803 400.596 308.927 400.836 307.974C402.037 303.807 402.873 299.53 403.332 295.197Z" fill="black"/>
<path d="M374.725 535.125L366.217 531.931L371.569 512.147L380.065 515.355L374.725 535.125Z" fill="#CE7A63"/>
<path d="M488.401 511.684L481.477 517.222L467.305 501.805L474.229 496.266L488.401 511.684Z" fill="#CE7A63"/>
<path d="M478.644 514.968L486.12 508.335C486.247 508.217 486.409 508.152 486.576 508.152C486.744 508.152 486.906 508.217 487.032 508.335L492.768 513.925C492.897 514.063 492.999 514.226 493.069 514.406C493.139 514.586 493.175 514.78 493.175 514.975C493.175 515.17 493.139 515.363 493.069 515.543C492.999 515.723 492.897 515.887 492.768 516.024L492.648 516.14C490.008 518.407 488.616 519.36 485.328 522.271C483.312 524.061 479.076 528.351 476.28 530.824C473.484 533.296 471.06 530.476 472.02 529.175C476.304 523.353 477.3 519.515 477.804 516.372C477.925 515.814 478.222 515.318 478.644 514.968Z" fill="#263238"/>
<path d="M365.641 529.072L375.097 533.309C375.265 533.388 375.405 533.524 375.496 533.696C375.587 533.868 375.624 534.066 375.601 534.262L374.533 543.214C374.491 543.572 374.318 543.898 374.053 544.12C373.787 544.342 373.451 544.443 373.117 544.399C372.992 544.385 372.871 544.35 372.757 544.296C369.409 542.84 367.837 542.119 363.685 540.252L350.941 534.52C347.485 532.961 348.229 528.891 349.741 529.188C356.737 530.553 361.249 530.102 364.009 528.982C364.273 528.88 364.553 528.836 364.833 528.851C365.113 528.867 365.388 528.942 365.641 529.072Z" fill="#263238"/>
<path opacity="0.2" d="M371.568 512.16L368.82 522.348L377.1 526.367L380.076 515.355L371.568 512.16Z" fill="black"/>
<path opacity="0.2" d="M474.241 496.266L467.305 501.805L474.613 509.752L481.537 504.213L474.241 496.266Z" fill="black"/>
<path d="M429.504 343.033L394.464 343.574C389.664 314.452 388.464 300.555 388.464 293.87C388.458 292.203 388.994 290.586 389.98 289.297C390.965 288.009 392.339 287.13 393.864 286.812C396 286.361 398.664 285.846 401.34 285.447C402.252 285.318 403.176 285.189 404.088 285.086C409.38 284.599 414.697 284.517 420 284.841C420.792 284.841 421.572 284.918 422.4 284.97C426 285.215 429.288 285.704 431.628 286.091C432.47 286.236 433.223 286.734 433.722 287.476C434.222 288.217 434.427 289.141 434.292 290.045C434.298 290.109 434.298 290.174 434.292 290.238C433.26 295.39 432.42 299.962 431.748 304.032C430.68 310.472 430.008 315.727 429.612 320.313C429.012 327.871 428.976 335.469 429.504 343.033Z" fill="#263238"/>
<path opacity="0.1" d="M429.6 320.351C427.836 314.671 427.932 302.886 429.828 299.073L431.76 304.058C430.668 310.537 429.996 315.766 429.6 320.351Z" fill="black"/>
<path d="M394.464 343.574C394.464 343.574 388.464 398.327 383.052 432.446C378.768 459.159 367.944 514.762 367.944 514.762L381.996 520.107C381.996 520.107 398.088 462.147 400.908 437.392C412.248 401.701 420.408 343.303 420.408 343.303L394.464 343.574Z" fill="#6E69D1"/>
<path d="M365.664 518.497L381.924 524.641L384.096 519.038L366.456 511.8L365.664 518.497Z" fill="#263238"/>
<path opacity="0.1" d="M412.224 359.841L406.969 370.648C405.049 378.788 405.505 398.597 407.941 411.117C412.309 392.247 415.8 372.386 417.972 359.056L412.224 359.841Z" fill="black"/>
<path d="M402.072 343.574C402.072 343.574 408.348 404.857 420.072 438.886C425.952 455.952 469.572 506.545 469.572 506.545L479.412 498.095C479.412 498.095 451.752 447.052 439.656 433.695C434.724 404.071 440.928 359.661 429.468 343.046L402.072 343.574Z" fill="#6E69D1"/>
<path d="M470.4 510.164L481.944 500.014L478.824 494.515L466.188 506.326L470.4 510.164Z" fill="#263238"/>
<path d="M430.057 340.831L431.677 344.166C431.797 344.424 431.521 344.707 431.113 344.707L394.345 345.274C394.021 345.274 393.769 345.107 393.733 344.901L393.385 341.539C393.385 341.307 393.637 341.101 393.973 341.101L429.469 340.547C429.581 340.54 429.693 340.562 429.795 340.611C429.898 340.661 429.987 340.736 430.057 340.831Z" fill="#263238"/>
<path d="M425.292 345.184H426.264C426.444 345.184 426.588 345.068 426.576 344.952L426.06 340.573C426.06 340.444 425.892 340.354 425.7 340.354H424.8C424.608 340.354 424.464 340.47 424.488 340.586L424.992 344.952C424.932 345.055 425.112 345.184 425.292 345.184Z" fill="#6E69D1"/>
<path d="M396.984 345.596H397.944C398.136 345.596 398.268 345.48 398.256 345.351L397.764 340.985C397.764 340.856 397.572 340.753 397.38 340.753H396.42C396.228 340.753 396.084 340.869 396.096 340.998L396.6 345.364C396.624 345.493 396.792 345.596 396.984 345.596Z" fill="#6E69D1"/>
<path d="M411.145 345.351H412.105C412.297 345.351 412.441 345.235 412.429 345.107L411.925 340.74C411.925 340.599 411.745 340.496 411.553 340.508H410.593C410.401 340.508 410.269 340.624 410.269 340.753L410.773 345.119C410.761 345.274 410.953 345.351 411.145 345.351Z" fill="#6E69D1"/>
<path d="M347.568 305.024L399.576 297.361L406.776 352.165L355.704 359.687L347.568 305.024Z" fill="#6E69D1"/>
<path opacity="0.8" d="M347.568 305.024L399.576 297.361L406.776 352.165L355.704 359.687L347.568 305.024Z" fill="white"/>
<path opacity="0.2" d="M400.29 294.714L386.402 296.822L393.851 353.361L407.739 351.253L400.29 294.714Z" fill="#6E69D1"/>
<path d="M414.324 345.261L407.124 342.234L407.832 351.894C407.832 351.894 412.632 351.637 415.212 348.945L414.324 345.261Z" fill="#CE7A63"/>
<path d="M436.969 297.167C438.901 302.963 440.569 308.759 441.985 314.684C442.705 317.659 443.377 320.647 443.917 323.7C444.181 325.246 444.409 326.817 444.577 328.453C444.77 330.162 444.838 331.884 444.781 333.605C444.747 334.725 444.586 335.837 444.301 336.915C443.906 338.241 443.247 339.459 442.369 340.483C441.085 341.958 439.56 343.168 437.869 344.05C435.099 345.492 432.184 346.586 429.181 347.309C423.566 348.707 417.84 349.53 412.081 349.769L411.517 344.913C414.145 344.244 416.833 343.497 419.449 342.711C422.065 341.925 424.669 341.049 427.165 340.071C429.549 339.191 431.847 338.065 434.029 336.709C434.821 336.212 435.527 335.571 436.117 334.815C436.273 334.558 436.273 334.493 436.249 334.493C436.273 334.112 436.273 333.729 436.249 333.347C436.203 332.099 436.079 330.855 435.877 329.625C435.685 328.337 435.421 326.894 435.133 325.477C434.533 322.721 433.861 319.9 433.105 317.08C431.605 311.49 429.913 305.81 428.221 300.336L436.969 297.167Z" fill="#CE7A63"/>
<path d="M400.489 347L401.053 349.241C401.222 349.961 401.605 350.602 402.144 351.067C402.684 351.531 403.349 351.795 404.041 351.817L407.905 351.933L407.197 342.286L403.261 342.762C402.843 342.808 402.437 342.941 402.067 343.154C401.698 343.368 401.371 343.657 401.105 344.007C400.84 344.356 400.642 344.758 400.521 345.19C400.401 345.622 400.361 346.075 400.405 346.523C400.422 346.684 400.45 346.843 400.489 347Z" fill="#CE7A63"/>
<path d="M432.876 286.374C436.908 288.138 440.208 302.358 440.208 302.358L429.072 311.696C429.072 311.696 421.176 298.43 422.784 292.672C424.152 287.804 427.74 284.146 432.876 286.374Z" fill="#263238"/>
<path d="M475.921 518.987H475.777C475.575 518.972 475.38 518.903 475.211 518.786C475.041 518.669 474.901 518.507 474.805 518.317C474.733 518.207 474.69 518.079 474.679 517.946C474.669 517.812 474.691 517.678 474.745 517.557C475.237 516.527 478.345 516.115 478.681 516.076C478.72 516.068 478.761 516.073 478.798 516.092C478.835 516.11 478.865 516.141 478.885 516.179C478.907 516.215 478.919 516.258 478.919 516.301C478.919 516.345 478.907 516.388 478.885 516.424C478.237 517.364 476.977 518.909 475.921 518.987ZM478.261 516.578C477.061 516.771 475.369 517.196 475.129 517.763C475.1 517.811 475.084 517.867 475.084 517.924C475.084 517.981 475.1 518.037 475.129 518.085C475.185 518.217 475.274 518.33 475.386 518.412C475.499 518.494 475.629 518.541 475.765 518.549C476.365 518.549 477.325 517.853 478.285 516.578H478.261Z" fill="#263238"/>
<path d="M478.536 516.488C477.492 516.488 475.404 516.089 474.936 515.2C474.862 515.046 474.838 514.869 474.868 514.699C474.899 514.528 474.982 514.373 475.104 514.26C475.21 514.135 475.34 514.037 475.485 513.972C475.631 513.908 475.787 513.878 475.944 513.886C477.204 513.886 478.8 515.96 478.848 516.076C478.866 516.107 478.876 516.142 478.876 516.179C478.876 516.215 478.866 516.251 478.848 516.282C478.839 516.32 478.819 516.354 478.791 516.379C478.763 516.404 478.729 516.42 478.692 516.424L478.536 516.488ZM475.872 514.35C475.703 514.368 475.546 514.45 475.428 514.582C475.248 514.788 475.284 514.917 475.332 515.02C475.608 515.586 477.252 516.05 478.308 516.05C477.707 515.239 476.891 514.642 475.968 514.337L475.872 514.35Z" fill="#263238"/>
<path d="M360.804 528.866C360.137 528.632 359.555 528.182 359.136 527.578C359.041 527.399 358.983 527.201 358.967 526.996C358.95 526.792 358.975 526.586 359.04 526.393C359.073 526.281 359.132 526.181 359.212 526.102C359.292 526.023 359.39 525.968 359.496 525.942C360.6 525.723 363.204 528.724 363.708 529.329C363.732 529.367 363.745 529.412 363.745 529.458C363.745 529.504 363.732 529.549 363.708 529.587C363.688 529.627 363.656 529.66 363.617 529.678C363.578 529.697 363.534 529.701 363.492 529.69C362.573 529.513 361.672 529.237 360.804 528.866ZM359.976 526.444C359.853 526.38 359.716 526.354 359.58 526.367C359.58 526.367 359.472 526.367 359.424 526.521C359.376 526.655 359.357 526.8 359.37 526.943C359.382 527.086 359.426 527.224 359.496 527.346C359.868 528.041 361.152 528.698 362.976 529.123C362.12 528.069 361.116 527.165 360 526.444H359.976Z" fill="#263238"/>
<path d="M363.481 529.664H363.409C362.533 528.724 361.105 525.903 361.597 525.002C361.705 524.809 361.933 524.602 362.449 524.757C364.381 525.362 363.793 529.381 363.757 529.548C363.757 529.591 363.742 529.631 363.715 529.662C363.689 529.694 363.652 529.713 363.613 529.716C363.588 529.721 363.563 529.72 363.54 529.71C363.516 529.701 363.496 529.685 363.481 529.664ZM362.521 525.169H362.401C362.209 525.105 362.065 525.169 362.017 525.169C361.729 525.697 362.653 527.822 363.493 528.956C363.481 527.964 363.601 525.684 362.521 525.169Z" fill="#263238"/>
<path d="M399.696 246.304C399.696 246.304 394.896 254.921 398.496 258.695C402.096 262.469 403.152 249.086 403.152 249.086L399.696 246.304Z" fill="#263238"/>
<path d="M421.992 266.526C421.992 266.526 427.992 256.454 425.496 246.446C423 236.438 411.336 242.904 406.416 240.16C404.613 238.984 402.693 238.03 400.692 237.314C400.37 237.212 400.031 237.19 399.7 237.25C399.37 237.31 399.056 237.451 398.784 237.662C397.584 238.795 399.672 240.92 400.32 241.719C399.921 241.224 399.461 240.791 398.952 240.431C398.316 239.98 397.464 239.941 397.752 241.088C398.246 242.319 399.13 243.324 400.248 243.921C399.78 243.638 397.008 242.131 396.816 243.071C396.792 243.299 396.848 243.529 396.972 243.715C398.772 247.322 402.396 251.855 406.572 251.946C411.6 252.023 416.4 267.208 421.992 266.526Z" fill="#263238"/>
<path d="M424.116 266.977C423.804 270.377 419.1 270.416 419.1 270.416C418.33 272.362 417.05 274.026 415.416 275.207C415.272 277.261 415.336 279.325 415.608 281.364C416.4 284.571 417.408 285.678 418.668 286.4L417.66 287.469C415.731 288.664 413.551 289.315 411.324 289.362L410.004 288.538L408.276 288.834C403.476 287.147 404.676 283.682 404.676 283.682C405.552 281.329 405.599 278.715 404.808 276.328C400.2 274.782 398.316 270.48 397.668 263.241C397.02 256.003 400.812 249.073 400.812 249.073C406.02 254.47 416.34 251.005 416.34 251.005C415.896 261.155 420.312 264.903 420.312 264.903C421.764 263.512 424.416 263.589 424.116 266.977Z" fill="#CE7A63"/>
<path d="M407.364 267.904C408.602 267.532 409.673 266.69 410.376 265.534C410.433 265.443 410.454 265.332 410.436 265.224C410.419 265.116 410.362 265.019 410.28 264.954C410.239 264.922 410.193 264.899 410.143 264.885C410.094 264.872 410.043 264.87 409.992 264.878C409.942 264.887 409.894 264.906 409.851 264.934C409.807 264.963 409.77 265 409.74 265.045C409.335 265.826 408.707 266.447 407.95 266.818C407.192 267.189 406.343 267.29 405.528 267.105C405.431 267.073 405.326 267.084 405.236 267.134C405.146 267.185 405.078 267.272 405.048 267.376C405.017 267.482 405.027 267.596 405.074 267.695C405.121 267.794 405.202 267.869 405.3 267.904C405.976 268.094 406.687 268.094 407.364 267.904Z" fill="#263238"/>
<path d="M408.732 259.043C408.732 259.699 408.492 260.266 408.084 260.331C407.676 260.395 407.304 259.854 407.256 259.197C407.208 258.54 407.508 257.909 407.916 257.909C408.324 257.909 408.684 258.373 408.732 259.043Z" fill="#263238"/>
<path d="M401.388 258.708C401.388 259.364 401.148 259.931 400.74 259.996C400.332 260.06 399.972 259.519 399.924 258.862C399.876 258.205 400.164 257.639 400.572 257.574C400.98 257.51 401.352 258.038 401.388 258.708Z" fill="#263238"/>
<path d="M403.332 265.083L403.248 260.318L401.04 264.336C401.345 264.638 401.71 264.861 402.107 264.99C402.503 265.12 402.922 265.152 403.332 265.083Z" fill="#BA4D3C"/>
<path d="M412.08 255.024C412.132 255.009 412.181 254.983 412.224 254.947C412.283 254.91 412.334 254.86 412.374 254.802C412.415 254.743 412.443 254.676 412.459 254.605C412.475 254.534 412.477 254.461 412.466 254.389C412.454 254.317 412.429 254.248 412.392 254.187C411.993 253.468 411.413 252.884 410.719 252.501C410.025 252.119 409.245 251.953 408.468 252.023C408.401 252.031 408.335 252.053 408.276 252.089C408.217 252.125 408.165 252.173 408.123 252.231C408.082 252.288 408.052 252.354 408.035 252.425C408.018 252.496 408.014 252.569 408.024 252.641C408.042 252.786 408.113 252.918 408.221 253.007C408.329 253.096 408.465 253.136 408.6 253.118C409.18 253.079 409.759 253.212 410.274 253.503C410.788 253.794 411.218 254.231 411.516 254.766C411.572 254.868 411.657 254.948 411.759 254.995C411.86 255.041 411.973 255.051 412.08 255.024Z" fill="#263238"/>
<path d="M399.06 254.496C399.195 254.458 399.311 254.366 399.384 254.238C399.599 253.889 399.904 253.614 400.262 253.447C400.62 253.28 401.015 253.229 401.4 253.298C401.467 253.313 401.535 253.313 401.601 253.299C401.668 253.285 401.731 253.257 401.787 253.216C401.843 253.175 401.891 253.122 401.927 253.061C401.964 253 401.989 252.932 402 252.86C402.025 252.717 401.996 252.569 401.919 252.448C401.843 252.328 401.726 252.244 401.592 252.216C400.998 252.098 400.385 252.175 399.833 252.437C399.28 252.699 398.815 253.134 398.496 253.684C398.429 253.812 398.41 253.962 398.444 254.103C398.478 254.245 398.561 254.367 398.676 254.444C398.794 254.512 398.931 254.53 399.06 254.496Z" fill="#263238"/>
<path d="M420.624 286.851L418.044 289.555L413.448 294.398L411.72 291.449L410.004 288.538L416.004 280.861L420.372 286.529L420.624 286.851Z" fill="white"/>
<path d="M410.005 288.538L408.673 290.921L406.717 294.398L402.229 285.704L405.096 282.085L410.005 288.538Z" fill="white"/>
</svg>
